<svg version="1.1" xmlns="http://www.w3.org/2000/svg" viewBox="0 0 854.7241871907016 535.0436756005236" width="854.7241871907016" height="535.0436756005236">
  <!-- svg-source:excalidraw -->
  
  <defs>
    <style class="style-fonts">
      @font-face {
        font-family: "Virgil";
        src: url("https://excalidraw.com/Virgil.woff2");
      }
      @font-face {
        font-family: "Cascadia";
        src: url("https://excalidraw.com/Cascadia.woff2");
      }
    </style>
    
  </defs>
  <g stroke-linecap="round" transform="translate(375.21403496337587 22.48439703277151) rotate(0 83.5 85.5)"><path d="M32 0 M32 0 C66.2 0.39, 102.56 -0.37, 135 0 M32 0 C65.6 0.22, 99.97 -0.3, 135 0 M135 0 C156.78 0.61, 166.01 9.36, 167 32 M135 0 C155.75 -0.78, 166.91 10.09, 167 32 M167 32 C168.82 62.47, 166.25 92.99, 167 139 M167 32 C166.25 69.67, 166.67 105.79, 167 139 M167 139 C166.42 159.81, 158.33 172.74, 135 171 M167 139 C166.46 159.89, 158.21 170.37, 135 171 M135 171 C103.51 171.51, 68.04 170.64, 32 171 M135 171 C97.91 169.72, 61.73 170.38, 32 171 M32 171 C9.78 172.81, 0.17 158.75, 0 139 M32 171 C9.03 169.44, -0.08 160.11, 0 139 M0 139 C2.14 98.33, 0.14 61.11, 0 32 M0 139 C-1.24 112.7, -1.64 87.27, 0 32 M0 32 C-0.5 12.26, 11.79 0.52, 32 0 M0 32 C-0.02 10.53, 8.39 1.86, 32 0" stroke="#1e1e1e" stroke-width="1" fill="none"></path></g><g transform="translate(384.3941191918915 82.98439703277151) rotate(0 74.31991577148438 25)"><text x="74.31991577148438" y="0" font-family="Virgil, Segoe UI Emoji" font-size="20px" fill="#1e1e1e" text-anchor="middle" style="white-space: pre;" direction="ltr" dominant-baseline="text-before-edge">Central </text><text x="74.31991577148438" y="25" font-family="Virgil, Segoe UI Emoji" font-size="20px" fill="#1e1e1e" text-anchor="middle" style="white-space: pre;" direction="ltr" dominant-baseline="text-before-edge">Processing Unit</text></g><g stroke-linecap="round"><g transform="translate(260.4322126902309 49.02272111095593) rotate(0 50.45537009776967 13.241797802152718)"><path d="M-0.79 -0.52 C13.29 3.61, 66.22 21.37, 83.31 25.49 C100.39 29.6, 98.78 24.05, 101.7 24.16 M0.99 1.82 C15.09 5.53, 66.11 19.76, 82.79 23.64 C99.47 27.51, 98.05 24.96, 101.05 25.05" stroke="#1e1e1e" stroke-width="1" fill="none"></path></g><g transform="translate(260.4322126902309 49.02272111095593) rotate(0 50.45537009776967 13.241797802152718)"><path d="M-0.63 -0.42 L13.37 -3.85 L10.81 8.24 L-1.38 -1" stroke="none" stroke-width="0" fill="#1e1e1e" fill-rule="evenodd"></path><path d="M-1.45 0.5 C2.84 -0.54, 4.17 -1.96, 15.52 -2.29 M-0.6 -0.94 C3.93 -1.44, 8.36 -1.94, 14.6 -2.75 M13.66 -2.9 C12.62 1.05, 12.24 4.81, 10.71 10.56 M14.69 -2.51 C12.36 1.1, 11.41 5.33, 10.13 9.34 M9.22 8.24 C5.56 4.85, 2.72 2.51, 0.24 0.06 M10.83 9.48 C6.35 5.72, 1.62 2.31, -0.84 -0.81 M-0.79 -0.52 C-0.79 -0.52, -0.79 -0.52, -0.79 -0.52 M-0.79 -0.52 C-0.79 -0.52, -0.79 -0.52, -0.79 -0.52" stroke="#1e1e1e" stroke-width="1" fill="none"></path></g><g transform="translate(260.4322126902309 49.02272111095593) rotate(0 50.45537009776967 13.241797802152718)"><path d="M101.22 25.16 L88.11 32.34 L87.11 19.87 L100.47 24.57" stroke="none" stroke-width="0" fill="#1e1e1e" fill-rule="evenodd"></path><path d="M100.4 26.08 C99.29 26.99, 95.17 27.71, 90.26 33.9 M101.25 24.64 C96.9 27.71, 92.38 30.72, 89.34 33.44 M88.4 33.29 C87.69 28.58, 87.87 23.67, 87 22.19 M89.43 33.68 C87.51 29.11, 87.07 25.18, 86.43 20.98 M85.51 19.87 C92.14 22, 99.5 25.22, 102.09 25.64 M87.12 21.12 C92.56 22.7, 97.64 24.64, 101.01 24.76 M101.05 25.05 C101.05 25.05, 101.05 25.05, 101.05 25.05 M101.05 25.05 C101.05 25.05, 101.05 25.05, 101.05 25.05" stroke="#1e1e1e" stroke-width="1" fill="none"></path></g></g><mask></mask><g stroke-linecap="round" transform="translate(92.28873953299353 37.266219305916366) rotate(0 6.892682926829252 7.658536585365852)"><path d="M0.43 1.7 C0.43 1.7, 0.43 1.7, 0.43 1.7 M0.43 1.7 C0.43 1.7, 0.43 1.7, 0.43 1.7 M0.82 7.34 C2.86 5.68, 3.68 3.88, 5.41 2.06 M0.82 7.34 C2.13 5.57, 3.5 4.35, 5.41 2.06 M0.56 13.74 C4.12 10.47, 6.84 5.56, 10.4 2.42 M0.56 13.74 C3.07 10.42, 7.1 7.17, 10.4 2.42 M3.58 16.36 C8.46 14.51, 9.15 7.91, 15.39 2.78 M3.58 16.36 C7.1 12.73, 9.78 8.49, 15.39 2.78 M8.57 16.72 C11.1 13.76, 12.39 11.43, 15.13 9.17 M8.57 16.72 C10.45 14.22, 12.87 12.38, 15.13 9.17" stroke="#868e96" stroke-width="0.5" fill="none"></path><path d="M3.45 0 M3.45 0 C4.9 0.35, 7.46 0.48, 10.34 0 M3.45 0 C5.27 -0.17, 6.65 -0.25, 10.34 0 M10.34 0 C12.03 -1.88, 13 2.63, 13.79 3.45 M10.34 0 C14.41 1.57, 16.04 -0.15, 13.79 3.45 M13.79 3.45 C13.74 5.96, 14.57 8.27, 13.79 11.87 M13.79 3.45 C13.67 6.26, 14.06 8.03, 13.79 11.87 M13.79 11.87 C12.03 12.88, 11.63 14.36, 10.34 15.32 M13.79 11.87 C13.18 12.61, 13.89 17.3, 10.34 15.32 M10.34 15.32 C8.83 15.36, 7.47 14.59, 3.45 15.32 M10.34 15.32 C8.09 15.41, 6.42 15.34, 3.45 15.32 M3.45 15.32 C2.17 16.62, -1.1 13.81, 0 11.87 M3.45 15.32 C0.95 13.27, -0.65 16.4, 0 11.87 M0 11.87 C0.75 9.88, 0.42 6.92, 0 3.45 M0 11.87 C-0.11 8.77, -0.16 6.3, 0 3.45 M0 3.45 C-0.05 -0.35, 0.16 1.47, 3.45 0 M0 3.45 C-1.5 3.1, 2.54 -1.78, 3.45 0" stroke="#1e1e1e" stroke-width="1" fill="none"></path></g><g stroke-linecap="round" transform="translate(120.93166636226181 37.266219305916366) rotate(0 6.892682926829252 7.658536585365852)"><path d="M0.43 1.7 C0.43 1.7, 0.43 1.7, 0.43 1.7 M0.43 1.7 C0.43 1.7, 0.43 1.7, 0.43 1.7 M0.82 7.34 C2.01 5.62, 3.47 4.24, 5.41 2.06 M0.82 7.34 C2.22 5.56, 3.94 3.43, 5.41 2.06 M0.56 13.74 C4.42 10.83, 5.08 8.95, 10.4 2.42 M0.56 13.74 C3.16 10.91, 4.96 8.56, 10.4 2.42 M3.58 16.36 C6.23 11.21, 10.06 6.4, 15.39 2.78 M3.58 16.36 C8.77 10.69, 12.33 6.96, 15.39 2.78 M8.57 16.72 C10.98 14.61, 11.62 12.39, 15.13 9.17 M8.57 16.72 C10.75 14.25, 11.69 12.25, 15.13 9.17" stroke="#868e96" stroke-width="0.5" fill="none"></path><path d="M3.45 0 M3.45 0 C4.7 0.39, 7.48 -0.54, 10.34 0 M3.45 0 C5.61 0.08, 7.33 0.01, 10.34 0 M10.34 0 C13.3 -0.41, 12.83 1.8, 13.79 3.45 M10.34 0 C14.34 0.24, 14.96 2.65, 13.79 3.45 M13.79 3.45 C13.02 5.27, 14.59 7.41, 13.79 11.87 M13.79 3.45 C13.97 6.3, 13.67 8.87, 13.79 11.87 M13.79 11.87 C14.21 12.89, 12.21 13.97, 10.34 15.32 M13.79 11.87 C13.01 14.55, 12.58 13.59, 10.34 15.32 M10.34 15.32 C9.2 15.69, 6.35 15.33, 3.45 15.32 M10.34 15.32 C7.98 15.58, 6.2 15.44, 3.45 15.32 M3.45 15.32 C1.65 13.77, 0.89 16.15, 0 11.87 M3.45 15.32 C0.77 14.8, 0.81 13.34, 0 11.87 M0 11.87 C0.15 10.16, 0.2 8.07, 0 3.45 M0 11.87 C0.42 8.71, 0.33 5.44, 0 3.45 M0 3.45 C0.04 2.95, 1.54 -1.19, 3.45 0 M0 3.45 C-1.99 2.45, 2.9 -0.19, 3.45 0" stroke="#1e1e1e" stroke-width="1" fill="none"></path></g><g stroke-linecap="round" transform="translate(206.86044685006664 37.266219305916366) rotate(0 6.892682926829252 7.658536585365852)"><path d="M0.43 1.7 C0.43 1.7, 0.43 1.7, 0.43 1.7 M0.43 1.7 C0.43 1.7, 0.43 1.7, 0.43 1.7 M0.82 7.34 C2.35 5.51, 3.72 3.92, 5.41 2.06 M0.82 7.34 C1.72 5.85, 3.49 4.9, 5.41 2.06 M0.56 13.74 C4.11 11.03, 6.79 5.23, 10.4 2.42 M0.56 13.74 C3.31 9.87, 6.08 6.97, 10.4 2.42 M3.58 16.36 C6.46 10.03, 11.71 5.07, 15.39 2.78 M3.58 16.36 C7.68 11.86, 10.19 8.17, 15.39 2.78 M8.57 16.72 C9.55 14.46, 12.84 11.96, 15.13 9.17 M8.57 16.72 C10.25 15.02, 12.18 12.59, 15.13 9.17" stroke="#868e96" stroke-width="0.5" fill="none"></path><path d="M3.45 0 M3.45 0 C5.2 0.73, 7.21 0.15, 10.34 0 M3.45 0 C5.66 -0.12, 7.65 0.04, 10.34 0 M10.34 0 C11.36 -0.42, 12.44 0.47, 13.79 3.45 M10.34 0 C13.02 -0.05, 12.06 0.01, 13.79 3.45 M13.79 3.45 C14.24 5.94, 13.81 9.91, 13.79 11.87 M13.79 3.45 C14.11 6.31, 13.94 8.58, 13.79 11.87 M13.79 11.87 C12.24 15.06, 14.62 14.99, 10.34 15.32 M13.79 11.87 C13.27 14.97, 11.81 13.31, 10.34 15.32 M10.34 15.32 C8.45 15.48, 6.24 15.87, 3.45 15.32 M10.34 15.32 C8.37 15.65, 6.31 15.39, 3.45 15.32 M3.45 15.32 C2.95 15.7, -1.19 12.44, 0 11.87 M3.45 15.32 C2.45 17.07, -0.19 15.89, 0 11.87 M0 11.87 C-0.49 8.03, -0.45 5.06, 0 3.45 M0 11.87 C-0.41 9.04, 0.2 7.25, 0 3.45 M0 3.45 C-0.01 1.55, -0.65 1.21, 3.45 0 M0 3.45 C2.08 1.58, -0.59 -1.5, 3.45 0" stroke="#1e1e1e" stroke-width="1" fill="none"></path></g><g stroke-linecap="round" transform="translate(149.57459319153008 37.266219305916366) rotate(0 6.892682926829252 7.658536585365852)"><path d="M0.43 1.7 C0.43 1.7, 0.43 1.7, 0.43 1.7 M0.43 1.7 C0.43 1.7, 0.43 1.7, 0.43 1.7 M0.82 7.34 C1.98 5.25, 3.36 3.56, 5.41 2.06 M0.82 7.34 C2.06 6.46, 3.08 4.93, 5.41 2.06 M0.56 13.74 C3.2 10.32, 7.65 6.49, 10.4 2.42 M0.56 13.74 C3.41 11.13, 6.95 6.64, 10.4 2.42 M3.58 16.36 C5.31 13.06, 7.46 11.64, 15.39 2.78 M3.58 16.36 C7.56 11.11, 12.93 6.07, 15.39 2.78 M8.57 16.72 C9.69 14.7, 11.54 14.39, 15.13 9.17 M8.57 16.72 C10.29 14.25, 12.56 11.55, 15.13 9.17" stroke="#868e96" stroke-width="0.5" fill="none"></path><path d="M3.45 0 M3.45 0 C5.41 -0.01, 7.82 0.32, 10.34 0 M3.45 0 C5.94 -0.24, 8.21 -0.26, 10.34 0 M10.34 0 C11.96 0.33, 13.74 -0.35, 13.79 3.45 M10.34 0 C11.5 1.69, 12.28 3.1, 13.79 3.45 M13.79 3.45 C13.89 6.47, 13.84 9.15, 13.79 11.87 M13.79 3.45 C13.96 6.27, 14.04 10.17, 13.79 11.87 M13.79 11.87 C13.45 13.72, 13.34 14.6, 10.34 15.32 M13.79 11.87 C11.78 13.8, 13.05 15.69, 10.34 15.32 M10.34 15.32 C8.74 15.22, 5.42 15.97, 3.45 15.32 M10.34 15.32 C8.24 15.62, 6.19 15.1, 3.45 15.32 M3.45 15.32 C-0.58 16.45, 1.52 14.01, 0 11.87 M3.45 15.32 C2.87 16.81, 0.51 16.24, 0 11.87 M0 11.87 C-0.59 9.78, 0.22 8.29, 0 3.45 M0 11.87 C0.44 10.13, 0.15 8.02, 0 3.45 M0 3.45 C1.21 2.96, 1.52 -1.51, 3.45 0 M0 3.45 C-1.5 1.23, 2.33 1.37, 3.45 0" stroke="#1e1e1e" stroke-width="1" fill="none"></path></g><g stroke-linecap="round" transform="translate(178.21752002079836 37.266219305916366) rotate(0 6.892682926829252 7.658536585365852)"><path d="M0.43 1.7 C0.43 1.7, 0.43 1.7, 0.43 1.7 M0.43 1.7 C0.43 1.7, 0.43 1.7, 0.43 1.7 M0.82 7.34 C1.74 5.44, 2.79 5.34, 5.41 2.06 M0.82 7.34 C2.32 5.31, 4.58 3.09, 5.41 2.06 M0.56 13.74 C2.9 10.29, 5.08 6.77, 10.4 2.42 M0.56 13.74 C2.74 9.74, 5.64 6.77, 10.4 2.42 M3.58 16.36 C7.57 14.57, 8.12 9.71, 15.39 2.78 M3.58 16.36 C6.42 12.43, 8.87 10.58, 15.39 2.78 M8.57 16.72 C11.18 14.69, 12.78 13.13, 15.13 9.17 M8.57 16.72 C9.74 14.74, 12.28 12.94, 15.13 9.17" stroke="#868e96" stroke-width="0.5" fill="none"></path><path d="M3.45 0 M3.45 0 C5.91 0.29, 7.59 0.18, 10.34 0 M3.45 0 C5.43 -0.1, 7.93 0.01, 10.34 0 M10.34 0 C11.14 -0.99, 15.25 -0.16, 13.79 3.45 M10.34 0 C14.59 1.4, 12.01 1.36, 13.79 3.45 M13.79 3.45 C13.41 6.77, 14.48 9.13, 13.79 11.87 M13.79 3.45 C14.14 6.12, 13.63 9.07, 13.79 11.87 M13.79 11.87 C13.06 12.42, 12.32 15.68, 10.34 15.32 M13.79 11.87 C14.16 14.4, 13.14 14.71, 10.34 15.32 M10.34 15.32 C8.41 15.29, 5.66 15.15, 3.45 15.32 M10.34 15.32 C8.05 15.03, 6.37 15.59, 3.45 15.32 M3.45 15.32 C0.99 16.81, 1.3 14.61, 0 11.87 M3.45 15.32 C3.22 14.04, -2.1 13, 0 11.87 M0 11.87 C0.54 9.22, -0.67 8.58, 0 3.45 M0 11.87 C-0.38 8.86, 0.38 5.41, 0 3.45 M0 3.45 C-1.51 -0.15, 1.22 1.03, 3.45 0 M0 3.45 C1.37 0.69, 3.35 1.63, 3.45 0" stroke="#1e1e1e" stroke-width="1" fill="none"></path></g><g stroke-linecap="round" transform="translate(235.5033736793349 37.266219305916366) rotate(0 6.892682926829252 7.658536585365852)"><path d="M0.43 1.7 C0.43 1.7, 0.43 1.7, 0.43 1.7 M0.43 1.7 C0.43 1.7, 0.43 1.7, 0.43 1.7 M0.82 7.34 C2.63 6.47, 3.83 5.19, 5.41 2.06 M0.82 7.34 C1.73 5.96, 3.04 5.01, 5.41 2.06 M0.56 13.74 C2.78 10.58, 7.17 8.91, 10.4 2.42 M0.56 13.74 C2.51 10.88, 4.92 8.17, 10.4 2.42 M3.58 16.36 C7.76 10.26, 11.85 7.07, 15.39 2.78 M3.58 16.36 C7.82 11.79, 10.91 7.88, 15.39 2.78 M8.57 16.72 C11.66 13.31, 13.28 10.96, 15.13 9.17 M8.57 16.72 C9.88 15.13, 11.33 13.93, 15.13 9.17" stroke="#868e96" stroke-width="0.5" fill="none"></path><path d="M3.45 0 M3.45 0 C6.06 0.16, 7.76 -0.13, 10.34 0 M3.45 0 C5.04 -0.27, 6.49 0.24, 10.34 0 M10.34 0 C11.33 1.7, 15 -0.4, 13.79 3.45 M10.34 0 C12.84 0.47, 13.75 1.48, 13.79 3.45 M13.79 3.45 C14.13 5.81, 13.2 8.13, 13.79 11.87 M13.79 3.45 C13.92 6.66, 13.4 10.1, 13.79 11.87 M13.79 11.87 C14.14 14.49, 12.84 15.76, 10.34 15.32 M13.79 11.87 C13.18 15.96, 12.37 13.16, 10.34 15.32 M10.34 15.32 C7.49 15.38, 5.48 15.5, 3.45 15.32 M10.34 15.32 C8.94 15.33, 7.28 15.58, 3.45 15.32 M3.45 15.32 C1.59 17.12, -1.11 12.35, 0 11.87 M3.45 15.32 C-0.02 13.51, -0.09 14.56, 0 11.87 M0 11.87 C0.51 9.55, 0.07 5.91, 0 3.45 M0 11.87 C0.03 9.78, -0.33 8.34, 0 3.45 M0 3.45 C1.03 2.34, 0.75 1.92, 3.45 0 M0 3.45 C1.63 -0.77, 0.71 1.38, 3.45 0" stroke="#1e1e1e" stroke-width="1" fill="none"></path></g><g transform="translate(125.7221269957048 66.28671547123594) rotate(0 45.729942321777344 12.5)"><text x="0" y="0" font-family="Virgil, Segoe UI Emoji" font-size="20px" fill="#1e1e1e" text-anchor="start" style="white-space: pre;" direction="ltr" dominant-baseline="text-before-edge">Registers</text></g><g stroke-linecap="round"><g transform="translate(280.20227343386966 198.67642488234318) rotate(0 39.20438098078199 -11.83572755967441)"><path d="M-0.2 0.28 C12.88 -3.67, 64.87 -19.74, 77.79 -23.96 M-1.76 -0.61 C11.78 -4.33, 66.61 -18.41, 80.17 -22.33" stroke="#1e1e1e" stroke-width="1" fill="none"></path></g><g transform="translate(280.20227343386966 198.67642488234318) rotate(0 39.20438098078199 -11.83572755967441)"><path d="M0.91 1.04 L9.55 -10.38 L16.04 4.06 L0.72 1.19" stroke="none" stroke-width="0" fill="#1e1e1e" fill-rule="evenodd"></path><path d="M0.16 -0.49 C2.71 -3.51, 4.11 -5.25, 10.38 -10.31 M-0.49 0.7 C3.71 -3.77, 7.48 -8.01, 10.64 -10.21 M11.65 -9.01 C11.38 -5.49, 12.6 -1.28, 13.56 1.1 M10.92 -9.41 C12.8 -6.4, 12.88 -1.9, 14.1 2.18 M15.94 3.67 C9.52 0.7, 5.37 1.18, -0.55 0.64 M14.29 2.04 C10.74 2.32, 8.86 2.17, 0.24 -0.06 M-0.2 0.28 C-0.2 0.28, -0.2 0.28, -0.2 0.28 M-0.2 0.28 C-0.2 0.28, -0.2 0.28, -0.2 0.28" stroke="#1e1e1e" stroke-width="1" fill="none"></path></g><g transform="translate(280.20227343386966 198.67642488234318) rotate(0 39.20438098078199 -11.83572755967441)"><path d="M81.29 -21.57 L67.33 -13.25 L66.77 -23.17 L81.09 -21.42" stroke="none" stroke-width="0" fill="#1e1e1e" fill-rule="evenodd"></path><path d="M80.53 -23.11 C77.59 -21.4, 73.54 -18.38, 68.17 -13.18 M79.88 -21.91 C75.62 -18.83, 70.96 -15.7, 68.43 -13.09 M69.44 -11.89 C66.37 -17.27, 65.01 -21.94, 64.3 -26.13 M68.71 -12.29 C68.12 -17.08, 65.92 -20.42, 64.83 -25.04 M66.68 -23.56 C68.82 -25.41, 73.21 -23.6, 79.82 -21.98 M65.02 -25.19 C67.98 -24.06, 72.6 -23.2, 80.61 -22.68 M80.17 -22.33 C80.17 -22.33, 80.17 -22.33, 80.17 -22.33 M80.17 -22.33 C80.17 -22.33, 80.17 -22.33, 80.17 -22.33" stroke="#1e1e1e" stroke-width="1" fill="none"></path></g></g><mask></mask><g stroke-linecap="round" transform="translate(640.4157232008405 10) rotate(0 102.15423199493057 42.40948419183481)"><path d="M21.2 0 M21.2 0 C64.23 -0.82, 105.89 3.06, 183.1 0 M21.2 0 C74.71 2.25, 127.85 2.21, 183.1 0 M183.1 0 C199.1 1.97, 202.95 6.2, 204.31 21.2 M183.1 0 C195.67 1.7, 206.07 7.79, 204.31 21.2 M204.31 21.2 C204.44 32.38, 203 39.77, 204.31 63.61 M204.31 21.2 C204.26 36.48, 203.77 49.85, 204.31 63.61 M204.31 63.61 C202.81 77.92, 197.85 84.03, 183.1 84.82 M204.31 63.61 C202.65 79.48, 196.52 86.4, 183.1 84.82 M183.1 84.82 C147.83 83.14, 108.32 85.6, 21.2 84.82 M183.1 84.82 C149.7 84, 117.08 83, 21.2 84.82 M21.2 84.82 C8.15 84.57, -0.14 76.06, 0 63.61 M21.2 84.82 C7.12 87.03, 1.89 77.76, 0 63.61 M0 63.61 C1.36 44.95, 1.18 28.7, 0 21.2 M0 63.61 C-0.45 52.6, -0.8 40.43, 0 21.2 M0 21.2 C-1.34 5.31, 8.32 -0.29, 21.2 0 M0 21.2 C1.9 6.95, 5.3 -0.36, 21.2 0" stroke="#1e1e1e" stroke-width="1" fill="none"></path></g><g transform="translate(671.3200467485054 39.90948419183479) rotate(0 71.24990844726562 12.5)"><text x="71.24990844726562" y="0" font-family="Virgil, Segoe UI Emoji" font-size="20px" fill="#1e1e1e" text-anchor="middle" style="white-space: pre;" direction="ltr" dominant-baseline="text-before-edge">input / output</text></g><g stroke-linecap="round" transform="translate(637.3201404131156 201.30701628141546) rotate(0 103.08290683124812 46.43374181587751)"><path d="M127.79 0.65 C141.11 1.27, 155.44 4.83, 166.26 8.85 C177.07 12.88, 186.1 19.03, 192.67 24.8 C199.24 30.58, 204.41 37.46, 205.68 43.5 C206.95 49.54, 204.92 55.21, 200.29 61.05 C195.65 66.89, 187.3 73.73, 177.88 78.54 C168.46 83.35, 156.71 87.37, 143.76 89.9 C130.81 92.43, 114.31 93.89, 100.18 93.73 C86.05 93.56, 71.67 91.86, 58.96 88.92 C46.24 85.98, 32.85 81.13, 23.9 76.11 C14.96 71.09, 9.19 64.75, 5.28 58.8 C1.37 52.85, -1.17 46.37, 0.44 40.4 C2.06 34.42, 7.67 28.36, 14.95 22.95 C22.23 17.54, 32.75 11.59, 44.11 7.92 C55.47 4.25, 68.24 2.02, 83.11 0.94 C97.98 -0.15, 124.11 0.86, 133.33 1.41 C142.55 1.96, 139.13 3.53, 138.45 4.24 M96.83 1.23 C110.26 -0.1, 126.42 -0.5, 139.41 1.57 C152.39 3.65, 164.81 9.27, 174.75 13.65 C184.68 18.04, 193.88 22.2, 199.02 27.9 C204.16 33.59, 205.97 41.47, 205.59 47.82 C205.21 54.18, 203.04 60.28, 196.74 66.03 C190.44 71.78, 178.44 78.03, 167.79 82.31 C157.14 86.6, 145.83 89.85, 132.84 91.75 C119.86 93.64, 103.91 94.71, 89.89 93.67 C75.86 92.63, 60.92 89.23, 48.68 85.5 C36.43 81.77, 24.27 76.35, 16.41 71.28 C8.54 66.2, 3.79 61.26, 1.48 55.03 C-0.83 48.79, -0.87 40.04, 2.56 33.87 C5.98 27.7, 13.12 22.71, 22.04 18.03 C30.96 13.35, 43.57 8.71, 56.1 5.78 C68.62 2.85, 90.75 1.11, 97.19 0.45 C103.63 -0.2, 94.64 0.89, 94.72 1.83" stroke="#1e1e1e" stroke-width="1" fill="none"></path></g><g transform="translate(701.7924693552312 235.40714438342061) rotate(0 38.71995544433594 12.5)"><text x="38.71995544433594" y="0" font-family="Virgil, Segoe UI Emoji" font-size="20px" fill="#1e1e1e" text-anchor="middle" style="white-space: pre;" direction="ltr" dominant-baseline="text-before-edge">Storage</text></g><g stroke-linecap="round"><g transform="translate(566.7408528529814 90.48515248085437) rotate(0 31.265632924919373 -12.400099492638006)"><path d="M-1.02 -1.08 C9.66 -5, 52.77 -19.84, 63.55 -23.82 M0.65 0.97 C11.26 -3.31, 52.4 -21.6, 62.81 -25.77" stroke="#1e1e1e" stroke-width="1" fill="none"></path></g><g transform="translate(566.7408528529814 90.48515248085437) rotate(0 31.265632924919373 -12.400099492638006)"><path d="M0.5 -1.3 L10.78 -11.92 L15.76 2.03 L-2.38 0.37" stroke="none" stroke-width="0" fill="#1e1e1e" fill-rule="evenodd"></path><path d="M-2.37 -0.57 C2.13 -3.01, 3.42 -7.51, 10.06 -10.7 M-1.33 -1.8 C3.16 -4.12, 5.71 -7.18, 9.38 -11.63 M8.93 -11.49 C10.7 -6.08, 12.8 -2.67, 14.67 0.03 M9.89 -11.31 C11.44 -8.26, 12.33 -5.79, 14.45 -0.04 M15.1 -0.73 C8.62 -1.24, 6 -0.85, -1.2 0.07 M13.38 1.04 C9.57 0.58, 5.73 0.08, -0.36 -0.84 M-1.02 -1.08 C-1.02 -1.08, -1.02 -1.08, -1.02 -1.08 M-1.02 -1.08 C-1.02 -1.08, -1.02 -1.08, -1.02 -1.08" stroke="#1e1e1e" stroke-width="1" fill="none"></path></g><g transform="translate(566.7408528529814 90.48515248085437) rotate(0 31.265632924919373 -12.400099492638006)"><path d="M64.33 -26 L53.85 -14.98 L49.68 -24.66 L61.46 -24.33" stroke="none" stroke-width="0" fill="#1e1e1e" fill-rule="evenodd"></path><path d="M61.47 -25.27 C60.65 -22.4, 56.68 -21.41, 53.14 -13.76 M62.5 -26.49 C60.24 -21.85, 55.96 -17.8, 52.46 -14.69 M52.01 -14.55 C50.22 -18.48, 48.7 -24.41, 48.59 -26.66 M52.97 -14.37 C52.06 -17.55, 50.54 -21.29, 48.36 -26.73 M49.02 -27.42 C51.74 -27.07, 58.31 -26.07, 62.64 -24.63 M47.3 -25.65 C52.26 -25.45, 57.19 -25.37, 63.47 -25.54 M62.81 -25.77 C62.81 -25.77, 62.81 -25.77, 62.81 -25.77 M62.81 -25.77 C62.81 -25.77, 62.81 -25.77, 62.81 -25.77" stroke="#1e1e1e" stroke-width="1" fill="none"></path></g></g><mask></mask><g stroke-linecap="round"><g transform="translate(557.4541044898061 157.34974069571805) rotate(0 43.56628495963048 27.626560098340946)"><path d="M-0.6 0.72 C14.14 9.7, 72.86 45.05, 87.73 53.95 M1.28 0.05 C15.92 9.18, 72.2 46, 86.69 55.21" stroke="#1e1e1e" stroke-width="1" fill="none"></path></g><g transform="translate(557.4541044898061 157.34974069571805) rotate(0 43.56628495963048 27.626560098340946)"><path d="M-1.76 -0.7 L13.91 1 L9.7 11.31 L-0.78 1.83" stroke="none" stroke-width="0" fill="#1e1e1e" fill-rule="evenodd"></path><path d="M0.29 0.49 C2.29 2.08, 6.08 0.99, 14.63 2.04 M-0.42 1.17 C3.69 1.74, 8.7 1.68, 14.55 1.69 M13.41 3.39 C11.56 6.25, 10.23 10.43, 8.75 12.84 M14.86 2.8 C13.39 5.37, 11.59 6.81, 7.26 12.91 M7.34 12.06 C4.35 7.74, 1.61 3.85, 0.46 0.27 M7.8 13.82 C5.64 8.93, 2.48 6.41, -0.69 1.12 M-0.6 0.72 C-0.6 0.72, -0.6 0.72, -0.6 0.72 M-0.6 0.72 C-0.6 0.72, -0.6 0.72, -0.6 0.72" stroke="#1e1e1e" stroke-width="1" fill="none"></path></g><g transform="translate(557.4541044898061 157.34974069571805) rotate(0 43.56628495963048 27.626560098340946)"><path d="M85.53 53.79 L71.43 51.85 L80.64 40.65 L86.51 56.32" stroke="none" stroke-width="0" fill="#1e1e1e" fill-rule="evenodd"></path><path d="M87.59 54.98 C82.48 55.55, 79.16 53.6, 72.15 52.89 M86.87 55.66 C81.17 55.31, 76.37 54.05, 72.07 52.54 M70.93 54.24 C74.34 49, 78.1 45.01, 79.7 42.18 M72.38 53.65 C73.82 51.26, 75.11 47.74, 78.2 42.25 M78.28 41.4 C81.24 45.95, 84.27 50.93, 87.76 54.76 M78.74 43.16 C81.44 45.65, 83.11 50.55, 86.61 55.61 M86.69 55.21 C86.69 55.21, 86.69 55.21, 86.69 55.21 M86.69 55.21 C86.69 55.21, 86.69 55.21, 86.69 55.21" stroke="#1e1e1e" stroke-width="1" fill="none"></path></g></g><mask></mask><g stroke-linecap="round" transform="translate(49.639972997243945 176.60138416481502) rotate(0 108.5 30)"><path d="M15 0 M15 0 C56.75 -2.12, 96.38 -0.89, 202 0 M15 0 C59.21 -0.81, 103.89 -0.71, 202 0 M202 0 C212.51 -0.71, 217.94 6.03, 217 15 M202 0 C211.35 1.02, 217.03 5.97, 217 15 M217 15 C216.73 23.57, 215.92 32.24, 217 45 M217 15 C216.09 26.18, 216.37 39.26, 217 45 M217 45 C217.18 55.93, 211.32 58.67, 202 60 M217 45 C214.81 54.11, 214.01 59.32, 202 60 M202 60 C129.37 62.1, 61.01 61.88, 15 60 M202 60 C139.95 59.31, 77.52 58.2, 15 60 M15 60 C3.17 60.15, 0.85 54.25, 0 45 M15 60 C3.04 58.81, -1.61 54.21, 0 45 M0 45 C-0.48 35.91, -0.47 24.11, 0 15 M0 45 C-0.3 38.36, -0.98 29.65, 0 15 M0 15 C-1.81 3.89, 4.91 1.57, 15 0 M0 15 C-1.17 4.88, 4.97 1.7, 15 0" stroke="#1e1e1e" stroke-width="1" fill="none"></path></g><g transform="translate(61.89006454997832 194.10138416481502) rotate(0 96.24990844726562 12.5)"><text x="96.24990844726562" y="0" font-family="Virgil, Segoe UI Emoji" font-size="20px" fill="#1e1e1e" text-anchor="middle" style="white-space: pre;" direction="ltr" dominant-baseline="text-before-edge">Caches (L1, L2, L3)</text></g><g stroke-linecap="round"><g transform="translate(152.6092287492645 250.29097369402146) rotate(0 -0.43370700828660347 25.883251468945986)"><path d="M-0.72 0.79 C-0.81 5.93, -1.36 21.63, -1.52 29.98 C-1.68 38.33, -1.52 47.23, -1.67 50.91 M1.1 0.15 C1.46 5.58, 1.21 22.93, 0.67 31.51 C0.13 40.09, -1.66 48.01, -2.14 51.61" stroke="#1e1e1e" stroke-width="1" fill="none"></path></g><g transform="translate(152.6092287492645 250.29097369402146) rotate(0 -0.43370700828660347 25.883251468945986)"><path d="M0.66 -0.65 L3.66 15.79 L-9.03 14.56 L0.65 0.39" stroke="none" stroke-width="0" fill="#1e1e1e" fill-rule="evenodd"></path><path d="M0.26 -0.45 C0.48 4.57, 0.35 6.72, 5.21 14.49 M-0.74 1.33 C1.14 3.47, 1.98 6.25, 5.28 14.51 M4.16 15.16 C0.9 14.57, -4.94 14.94, -8.56 14.68 M5.77 14.87 C1.4 14.8, -3.93 14.13, -7.12 14.13 M-7.03 13.68 C-7.19 10.37, -3.72 8.85, -2.18 1.78 M-7.29 14.37 C-6.45 11.73, -3.94 8.38, -1.03 0.1 M-0.72 0.79 C-0.72 0.79, -0.72 0.79, -0.72 0.79 M-0.72 0.79 C-0.72 0.79, -0.72 0.79, -0.72 0.79" stroke="#1e1e1e" stroke-width="1" fill="none"></path></g><g transform="translate(152.6092287492645 250.29097369402146) rotate(0 -0.43370700828660347 25.883251468945986)"><path d="M-0.76 50.17 L-7.74 38.4 L4.76 39.61 L-0.77 51.22" stroke="none" stroke-width="0" fill="#1e1e1e" fill-rule="evenodd"></path><path d="M-1.15 50.37 C-2.93 49.1, -5.26 45.03, -6.18 37.1 M-2.16 52.16 C-2.64 48.11, -4.02 44.62, -6.11 37.12 M-7.24 37.77 C-1.01 38.33, 2.62 39.61, 5.22 39.73 M-5.63 37.48 C-1.4 38, 1.87 38.15, 6.67 39.18 M6.75 38.72 C3.08 41.54, 2.95 46.12, -3.59 52.61 M6.5 39.42 C3.68 42.8, 2.67 45.4, -2.45 50.92 M-2.14 51.61 C-2.14 51.61, -2.14 51.61, -2.14 51.61 M-2.14 51.61 C-2.14 51.61, -2.14 51.61, -2.14 51.61" stroke="#1e1e1e" stroke-width="1" fill="none"></path></g></g><mask></mask><g stroke-linecap="round" transform="translate(33.75404601616435 315.375926346299) rotate(0 123.22411370885328 43.549084362968216)"><path d="M21.77 0 M21.77 0 C83.01 -2.71, 146.38 -2.65, 224.67 0 M21.77 0 C78.27 0.55, 136.88 0.34, 224.67 0 M224.67 0 C238.57 0.42, 247.82 6.51, 246.45 21.77 M224.67 0 C237.14 0.18, 246.08 9.08, 246.45 21.77 M246.45 21.77 C247.78 35.98, 247.9 54.19, 246.45 65.32 M246.45 21.77 C246.36 33.94, 246.1 44.23, 246.45 65.32 M246.45 65.32 C247.86 79.4, 237.23 87.47, 224.67 87.1 M246.45 65.32 C248.71 79.79, 240.82 88.55, 224.67 87.1 M224.67 87.1 C165.9 86.23, 111.39 85.2, 21.77 87.1 M224.67 87.1 C180.82 87.07, 138.2 87.47, 21.77 87.1 M21.77 87.1 C6.18 85.41, 0.28 79.13, 0 65.32 M21.77 87.1 C5.39 88.35, 0.32 80.69, 0 65.32 M0 65.32 C-0.29 51.54, -1.08 33.17, 0 21.77 M0 65.32 C-0.92 49.17, -1.04 34.05, 0 21.77 M0 21.77 C-0.75 9.09, 6.21 1.13, 21.77 0 M0 21.77 C2.21 5.51, 5.5 -1.56, 21.77 0" stroke="#1e1e1e" stroke-width="1" fill="none"></path></g><g transform="translate(135.97817498380675 346.4250107092673) rotate(0 20.999984741210938 12.5)"><text x="20.999984741210938" y="0" font-family="Virgil, Segoe UI Emoji" font-size="20px" fill="#1e1e1e" text-anchor="middle" style="white-space: pre;" direction="ltr" dominant-baseline="text-before-edge">RAM</text></g><g stroke-linecap="round" transform="translate(10 442.55904772451345) rotate(0 51.21966172235466 40.08495265227759)"><path d="M20.04 0 M20.04 0 C42.64 0.37, 68.8 0.19, 82.4 0 M20.04 0 C37.71 -0.08, 57.02 -1.59, 82.4 0 M82.4 0 C95.46 1.26, 100.93 8.52, 102.44 20.04 M82.4 0 C96.08 1.22, 104.42 8.64, 102.44 20.04 M102.44 20.04 C100.64 35.03, 104.15 48.21, 102.44 60.13 M102.44 20.04 C102.58 34.27, 102.7 46.15, 102.44 60.13 M102.44 60.13 C103.19 73.36, 95.15 80.55, 82.4 80.17 M102.44 60.13 C102.79 73.86, 94.31 82.41, 82.4 80.17 M82.4 80.17 C64.15 79.51, 42.43 79.12, 20.04 80.17 M82.4 80.17 C62.86 81, 44.4 80.75, 20.04 80.17 M20.04 80.17 C8.12 80.34, -0.85 74.99, 0 60.13 M20.04 80.17 C5.67 79.07, 0.91 72.21, 0 60.13 M0 60.13 C1.31 50.81, 0.97 40.78, 0 20.04 M0 60.13 C-0.67 48.38, -0.23 36.07, 0 20.04 M0 20.04 C-0.22 7.8, 7.54 0.65, 20.04 0 M0 20.04 C-1.46 8.15, 5.18 1.52, 20.04 0" stroke="#1e1e1e" stroke-width="1" fill="none"></path></g><g transform="translate(34.42969132440544 470.1440003767909) rotate(0 26.78997039794922 12.5)"><text x="26.78997039794922" y="0" font-family="Virgil, Segoe UI Emoji" font-size="20px" fill="#1e1e1e" text-anchor="middle" style="white-space: pre;" direction="ltr" dominant-baseline="text-before-edge">Data</text></g><g stroke-linecap="round" transform="translate(177.02063605115654 444.04367560052356) rotate(0 71 40.5)"><path d="M20.25 0 M20.25 0 C60.63 -0.25, 99.32 2.26, 121.75 0 M20.25 0 C51.12 -1.24, 83.27 -1.32, 121.75 0 M121.75 0 C133.92 -1.73, 142.94 7.72, 142 20.25 M121.75 0 C135.31 0.71, 141.3 6.93, 142 20.25 M142 20.25 C143.03 31.65, 143.1 43.86, 142 60.75 M142 20.25 C141.54 35.3, 141.52 49.74, 142 60.75 M142 60.75 C144 73.6, 135.64 82.6, 121.75 81 M142 60.75 C140.63 75.75, 137.53 78.83, 121.75 81 M121.75 81 C87.68 80.52, 48.31 81.77, 20.25 81 M121.75 81 C81.84 79.57, 40.68 79.73, 20.25 81 M20.25 81 C7.69 81.28, 0.98 74.78, 0 60.75 M20.25 81 C5.81 81.56, -0.86 75.25, 0 60.75 M0 60.75 C-0.56 49.05, -0.68 34.33, 0 20.25 M0 60.75 C0.18 45.08, 0.24 29.98, 0 20.25 M0 20.25 C-1.39 8.28, 6.39 1.99, 20.25 0 M0 20.25 C2.05 4.74, 8.31 0.59, 20.25 0" stroke="#1e1e1e" stroke-width="1" fill="none"></path></g><g transform="translate(188.340696781137 472.04367560052356) rotate(0 59.67993927001953 12.5)"><text x="59.67993927001953" y="0" font-family="Virgil, Segoe UI Emoji" font-size="20px" fill="#1e1e1e" text-anchor="middle" style="white-space: pre;" direction="ltr" dominant-baseline="text-before-edge">Instructions</text></g><g stroke-linecap="round"><g transform="translate(131.70686736127902 409.40235849361693) rotate(0 -27.8881043770445 13.839384261622115)"><path d="M-0.24 -1.17 C-9.52 3.76, -46.68 24.15, -55.54 28.85 M-1.82 0.83 C-10.76 5.48, -44.76 22.58, -53.38 27.06" stroke="#1e1e1e" stroke-width="1" fill="none"></path></g><g transform="translate(131.70686736127902 409.40235849361693) rotate(0 -27.8881043770445 13.839384261622115)"><path d="M-1.74 -1.8 L-7.77 10.89 L-15.5 -1.7 L-0.94 0.24" stroke="none" stroke-width="0" fill="#1e1e1e" fill-rule="evenodd"></path><path d="M-1.7 -2.48 C-2.3 3.97, -7.33 6.63, -8.25 9.93 M0.02 -1.08 C-2.8 2.95, -5.2 6.01, -8.65 10.41 M-9.21 9.7 C-10.48 7.54, -12.72 4.46, -14.89 -0.6 M-9.58 10.31 C-11.49 6.42, -14.53 2.64, -14.9 -0.09 M-14.57 -0.2 C-11.44 0.76, -5.2 -0.41, -1.67 0.17 M-15.36 -0.01 C-10.97 -0.56, -7.18 -0.02, -0.07 -1.84 M-0.24 -1.17 C-0.24 -1.17, -0.24 -1.17, -0.24 -1.17 M-0.24 -1.17 C-0.24 -1.17, -0.24 -1.17, -0.24 -1.17" stroke="#1e1e1e" stroke-width="1" fill="none"></path></g><g transform="translate(131.70686736127902 409.40235849361693) rotate(0 -27.8881043770445 13.839384261622115)"><path d="M-54.88 26.43 L-42.77 15.23 L-38.67 25.08 L-54.08 28.47" stroke="none" stroke-width="0" fill="#1e1e1e" fill-rule="evenodd"></path><path d="M-54.84 25.75 C-49.62 24.78, -48.99 19.99, -43.25 14.28 M-53.12 27.16 C-50.51 24.13, -47.57 20.15, -43.65 14.75 M-44.2 14.04 C-42.3 17.63, -41.47 20.37, -38.07 26.18 M-44.58 14.65 C-41.68 19.6, -40.08 24.63, -38.08 26.68 M-37.75 26.58 C-44.36 27.89, -47.85 27.19, -54.81 28.41 M-38.54 26.76 C-41.52 26.71, -45.08 27.61, -53.21 26.4 M-53.38 27.06 C-53.38 27.06, -53.38 27.06, -53.38 27.06 M-53.38 27.06 C-53.38 27.06, -53.38 27.06, -53.38 27.06" stroke="#1e1e1e" stroke-width="1" fill="none"></path></g></g><mask></mask><g stroke-linecap="round"><g transform="translate(198.81313455822487 410.39211041095723) rotate(0 19.82144128648008 11.837713069347046)"><path d="M-0.77 -0.49 C5.95 3.62, 33.66 21.45, 40.41 25.46 M1.03 -1.79 C7.63 1.91, 33.47 19.37, 39.79 23.72" stroke="#1e1e1e" stroke-width="1" fill="none"></path></g><g transform="translate(198.81313455822487 410.39211041095723) rotate(0 19.82144128648008 11.837713069347046)"><path d="M-0.16 1.12 L12.45 0.25 L8.38 11.41 L-2.63 0.33" stroke="none" stroke-width="0" fill="#1e1e1e" fill-rule="evenodd"></path><path d="M-1.38 0.28 C4.74 0.14, 7.02 1.15, 13.52 0.99 M-0.08 0.06 C2.66 -0.48, 5.85 0.64, 14.01 0.79 M14.43 1.28 C11.06 6.06, 9.04 8.66, 8.38 12.38 M13.76 0.8 C12.1 4.84, 9.79 8.92, 7.31 12.7 M8.67 12.01 C4.95 7.91, 0.59 1.37, -1.79 0 M6.82 11.78 C5.72 9.03, 3.6 6.04, -1.36 -0.86 M-0.77 -0.49 C-0.77 -0.49, -0.77 -0.49, -0.77 -0.49 M-0.77 -0.49 C-0.77 -0.49, -0.77 -0.49, -0.77 -0.49" stroke="#1e1e1e" stroke-width="1" fill="none"></path></g><g transform="translate(198.81313455822487 410.39211041095723) rotate(0 19.82144128648008 11.837713069347046)"><path d="M40.4 25.33 L23.33 20.15 L33.15 10.11 L37.93 24.54" stroke="none" stroke-width="0" fill="#1e1e1e" fill-rule="evenodd"></path><path d="M39.18 24.49 C36.1 22.83, 29.22 22.51, 24.39 20.89 M40.48 24.27 C35.92 22.59, 31.82 22.65, 24.89 20.69 M25.3 21.18 C27.12 17.86, 30.39 12.4, 33.16 11.08 M24.64 20.7 C27.7 17.72, 29.91 14.9, 32.09 11.4 M33.44 10.71 C36.1 16.95, 38.05 20.62, 38.77 24.21 M31.6 10.48 C34.09 13.17, 35.35 15.65, 39.2 23.35 M39.79 23.72 C39.79 23.72, 39.79 23.72, 39.79 23.72 M39.79 23.72 C39.79 23.72, 39.79 23.72, 39.79 23.72" stroke="#1e1e1e" stroke-width="1" fill="none"></path></g></g><mask></mask><g transform="translate(118.3712490306549 137.56852291091704) rotate(0 33.989967346191406 12.5)"><text x="0" y="0" font-family="Virgil, Segoe UI Emoji" font-size="20px" fill="#1e1e1e" text-anchor="start" style="white-space: pre;" direction="ltr" dominant-baseline="text-before-edge">Memory</text></g></svg>